Coordinates
version=1
nRows=11
nColumns=42
inDegrees=yes

Units are S.I. units (second, meters, Newtons, ...)
If the header above contains a line with 'inDegrees', this indicates whether rotational values are in degrees (yes) or radians (no).

endheader
time	pelvis_tilt	pelvis_list	pelvis_rotation	pelvis_tx	pelvis_ty	pelvis_tz	hip_flexion_r	hip_adduction_r	hip_rotation_r	knee_angle_r	knee_adduction_r	knee_angle_r_beta	ankle_angle_r	subtalar_angle_r	mtp_angle_r	hip_flexion_l	hip_adduction_l	hip_rotation_l	knee_angle_l	knee_adduction_l	knee_angle_l_beta	ankle_angle_l	subtalar_angle_l	mtp_angle_l	lumbar_extension	lumbar_bending	lumbar_rotation	arm_flex_r	arm_add_r	arm_rot_r	elbow_flex_r	pro_sup_r	wrist_flex_r	wrist_dev_r	arm_flex_l	arm_add_l	arm_rot_l	elbow_flex_l	pro_sup_l	wrist_flex_l	wrist_dev_l
      1.45000000	      2.09012038	     -8.09487148	     -9.50700161	     -1.12717519	      0.82583910	     -0.11396482	      2.33901184	      5.12530750	    -28.33289067	     21.58414760	     -4.20092112	      0.37671444	     21.82717640	     35.49688909	     -7.85293920	     23.76657627	    -20.70012424	    -27.01504898	     44.64933663	    -11.15891214	      0.77927793	     15.65518370	     20.76733156	     -7.85293920	    -29.71053458	      8.61248709	      2.33718185	     -9.43384569	     -5.75672616	     -8.12400412	    109.64037369	     90.00000001	      0.00000000	      0.00000000	      6.23766462	     -8.95605971	    -12.26939115	     52.53360168	     90.00000001	      0.00000000	      0.00000000
      1.46000000	      1.98124783	     -8.24633981	     -9.89496097	     -1.12530281	      0.82574336	     -0.11528892	      2.33321397	      5.19943569	    -28.15922592	     21.59259369	     -4.29498718	      0.37686185	     21.82597682	     35.38119859	     -7.85030375	     23.73902657	    -20.81128567	    -27.09503139	     43.54529494	    -10.85353473	      0.76000877	     15.68150157	     20.70638412	     -7.85030375	    -29.67210692	      8.71854473	      2.36036889	     -9.51507761	     -5.72840573	     -8.09222659	    109.61240496	     90.00000001	      0.00000000	      0.00000000	      6.31528159	     -9.06794212	    -12.26065742	     52.61950834	     90.00000001	      0.00000000	      0.00000000
      1.47000000	      2.14964950	     -8.21893084	    -10.29380025	     -1.12317640	      0.82606035	     -0.11680921	      1.98530926	      5.04480153	    -27.60457154	     21.49958153	     -4.32165584	      0.37523849	     21.87134656	     35.39239973	     -7.84494428	     23.26581234	    -20.66801478	    -27.51444978	     42.48452427	    -10.68615788	      0.74149483	     15.49521221	     20.84267868	     -7.84494428	    -29.84934900	      8.54230264	      2.39027308	     -9.66142960	     -5.75936550	     -8.08018240	    109.61438031	     90.00000001	      0.00000000	      0.00000000	      6.48098965	     -9.11205343	    -12.16906494	     52.77510721	     90.00000001	      0.00000000	      0.00000000
      1.48000000	      2.17949241	     -8.27468119	    -10.70690966	     -1.12108606	      0.82625714	     -0.11838887	      1.82080022	      5.01107859	    -27.24567255	     21.46256468	     -4.44567759	      0.37459242	     21.86285323	     35.25778199	     -7.84083076	     22.95081318	    -20.60989583	    -27.68439832	     41.67900625	    -10.49635773	      0.72743589	     15.40762563	     20.86854588	     -7.84083076	    -29.89757097	      8.50391194	      2.40824131	     -9.77648858	     -5.78503571	     -8.09132402	    109.56873648	     90.00000001	      0.00000000	      0.00000000	      6.55569873	     -9.16113255	    -12.10719843	     52.90585688	     90.00000001	      0.00000000	      0.00000000
      1.49000000	      2.17474402	     -8.34267454	    -11.13560605	     -1.11894596	      0.82649362	     -0.12007321	      1.69202682	      4.95920696	    -26.97128745	     21.44907452	     -4.52847062	      0.37435697	     21.83366161	     35.14424099	     -7.83817552	     22.64792688	    -20.55721089	    -27.75128359	     41.07780529	    -10.29984501	      0.71694295	     15.36284302	     20.82403201	     -7.83817552	    -29.89602308	      8.49928778	      2.44812650	     -9.88179747	     -5.81516871	     -8.11968490	    109.49697855	     90.00000001	      0.00000000	      0.00000000	      6.58250486	     -9.22646406	    -12.07828912	     53.00545862	     90.00000001	      0.00000000	      0.00000000
      1.50000000	      2.37021401	     -8.33104675	    -11.59501180	     -1.11672665	      0.82709277	     -0.12193127	      1.29025207	      4.76151121	    -26.40940170	     21.32764738	     -4.44478599	      0.37223767	     21.75904370	     34.90109441	     -7.83192257	     22.01461677	    -20.35251573	    -27.93773492	     40.51660341	    -10.12091162	      0.70714813	     15.23277636	     20.61723585	     -7.83192257	    -30.11165915	      8.36365167	      2.51080237	     -9.97641529	     -5.83763437	     -8.23749600	    109.35619608	     90.00000001	      0.00000000	      0.00000000	      6.66286703	     -9.29198627	    -11.97499974	     53.24985568	     90.00000001	      0.00000000	      0.00000000
      1.51000000	      2.28202105	     -8.43307915	    -11.92860494	     -1.11455027	      0.82728598	     -0.12394397	      1.25927476	      4.72407753	    -26.35282694	     21.36568819	     -4.49274691	      0.37290161	     21.72532863	     34.80020603	     -7.83114261	     21.93805353	    -20.30594179	    -27.85860957	     40.49910235	    -10.09725187	      0.70684268	     15.21316756	     20.58289323	     -7.83114261	    -29.99633507	      8.48457500	      2.42740568	    -10.00982516	     -5.84856042	     -8.24856684	    109.31827922	     90.00000001	      0.00000000	      0.00000000	      6.70794298	     -9.30232130	    -11.96237097	     53.29120039	     90.00000001	      0.00000000	      0.00000000
      1.52000000	      2.46530803	     -8.37577057	    -12.46688417	     -1.11228151	      0.82818490	     -0.12587571	      0.88725403	      4.58631144	    -25.63600495	     21.16060723	     -4.60773981	      0.36932227	     21.40274442	     34.09729090	     -7.81782629	     21.07477407	    -19.98568348	    -27.69283252	     39.89858964	     -9.59440908	      0.69636176	     15.16261691	     19.48277755	     -7.81782629	    -30.17391101	      8.26704554	      2.53394910	    -10.10256951	     -5.82030865	     -8.59336374	    109.01558192	     90.00000001	      0.00000000	      0.00000000	      6.63162805	     -9.37187224	    -11.77636907	     53.71729798	     90.00000001	      0.00000000	      0.00000000
      1.53000000	      2.36002718	     -8.47100988	    -12.81687836	     -1.11011680	      0.82859474	     -0.12809516	      0.88286345	      4.53657928	    -25.60190973	     21.18368203	     -4.64404302	      0.36972500	     21.37174743	     34.01322569	     -7.81716970	     20.93149092	    -19.88917498	    -27.60590186	     39.92761002	     -9.58495445	      0.69686826	     15.14501804	     19.45639677	     -7.81716970	    -30.04772180	      8.40664058	      2.47136553	    -10.13479343	     -5.83269544	     -8.60405212	    108.97975196	     90.00000001	      0.00000000	      0.00000000	      6.66841451	     -9.38696153	    -11.76894802	     53.75064585	     90.00000001	      0.00000000	      0.00000000
      1.54000000	      2.45603189	     -8.35772547	    -13.39357457	     -1.10789658	      0.82950563	     -0.13024638	      0.73225450	      4.26086923	    -25.38066569	     21.17274696	     -4.84166864	      0.36953415	     21.14601157	     33.79717528	     -7.81462094	     20.18285734	    -19.51250380	    -27.49479147	     39.52923283	     -9.15718828	      0.68991526	     15.27633791	     19.10575222	     -7.81462094	    -30.12377807	      8.16509490	      2.59668977	    -10.29894831	     -5.95670145	     -8.75804435	    108.76887576	     90.00000001	      0.00000000	      0.00000000	      6.64550260	     -9.38138386	    -11.74990243	     53.84290196	     90.00000001	      0.00000000	      0.00000000
      1.55000000	      2.64095268	     -8.30934559	    -13.79668896	     -1.10558129	      0.83055524	     -0.13262170	      0.37882440	      3.96668314	    -25.09287885	     21.09041099	     -4.72400150	      0.36809711	     20.59171904	     33.15743455	     -7.80643558	     19.43734488	    -19.11764015	    -27.24145933	     39.29239748	     -8.80210775	      0.68578171	     15.34335566	     17.84108166	     -7.80643558	    -30.25187371	      8.03469598	      2.61149920	    -10.25430171	     -5.87709553	     -9.08511100	    108.46378245	     90.00000001	      0.00000000	      0.00000000	      6.62898361	     -9.39362818	    -11.66766868	     54.11367185	     90.00000001	      0.00000000	      0.00000000
